<?xml version="1.0" standalone="no"?><!DOCTYPE svg PUBLIC "-//W3C//DTD SVG 1.1//EN" "http://www.w3.org/Graphics/SVG/1.1/DTD/svg11.dtd"><svg t="1725355347063" class="icon" viewBox="0 0 1076 1024" version="1.1" xmlns="http://www.w3.org/2000/svg" p-id="2563" width="50" height="50" xmlns:xlink="http://www.w3.org/1999/xlink"><path d="M1050.965 150.528H337.92v75.093h642.73L868.353 525.653H320.171L241.664 0 0 0.341v75.094h177.152l101.035 675.84 660.138-0.342V675.84H342.7l-11.264-75.093h590.848l154.624-400.043M358.4 1024a119.467 119.467 0 1 1 119.467-119.467A119.467 119.467 0 0 1 358.4 1024z m0-170.667a51.2 51.2 0 1 0 51.2 51.2 51.2 51.2 0 0 0-51.2-51.2zM802.133 1024A119.467 119.467 0 1 1 921.6 904.533 119.467 119.467 0 0 1 802.133 1024z m0-170.667a51.2 51.2 0 1 0 51.2 51.2 51.2 51.2 0 0 0-51.2-51.2z" fill="#1296db" p-id="2564"></path></svg>