<?xml version="1.0" standalone="no"?><!DOCTYPE svg PUBLIC "-//W3C//DTD SVG 1.1//EN" "http://www.w3.org/Graphics/SVG/1.1/DTD/svg11.dtd"><svg t="1725276391690" class="icon" viewBox="0 0 1024 1024" version="1.1" xmlns="http://www.w3.org/2000/svg" p-id="6344" xmlns:xlink="http://www.w3.org/1999/xlink" width="10" height="10"><path d="M511.425901 955.659138C481.601958 955.659138 168.221882 603.156422 168.221882 413.616259 168.221882 224.080961 321.866277 70.412239 511.425901 70.412239s343.20402 153.645612 343.20402 343.20402C854.629921 603.175883 539.724591 955.659138 511.425901 955.659138L511.425901 955.659138zM511.425901 114.69812C346.33602 114.69812 212.507762 248.544622 212.507762 413.616259c0 165.114207 290.551136 497.761864 298.918139 497.761864 3.853273 0 298.923004-332.647657 298.923004-497.761864C810.348905 248.544622 676.520648 114.69812 511.425901 114.69812L511.425901 114.69812zM511.425901 535.399389c-67.243749 0-121.783131-54.534516-121.783131-121.783131 0-67.243749 54.539382-121.783131 121.783131-121.783131 67.248614 0 121.783131 54.539382 121.783131 121.783131C633.209032 480.864873 578.674516 535.399389 511.425901 535.399389L511.425901 535.399389zM511.425901 336.119008c-42.799549 0-77.49725 34.717163-77.49725 77.49725 0 42.822659 34.697702 77.49725 77.49725 77.49725 42.803198 0 77.49725-34.674592 77.49725-77.49725C588.923151 370.836171 554.229099 336.119008 511.425901 336.119008L511.425901 336.119008zM511.425901 336.119008" fill="#272636" p-id="6345"></path></svg>