<?xml version="1.0" standalone="no"?><!DOCTYPE svg PUBLIC "-//W3C//DTD SVG 1.1//EN" "http://www.w3.org/Graphics/SVG/1.1/DTD/svg11.dtd"><svg t="1725276260074" class="icon" viewBox="0 0 1024 1024" version="1.1" xmlns="http://www.w3.org/2000/svg" p-id="3878" width="10" height="10" xmlns:xlink="http://www.w3.org/1999/xlink"><path d="M737.17551 923.167347c-40.228571 0-86.204082-7.314286-134.269388-22.465306-114.938776-36.04898-228.310204-110.759184-318.693877-210.546939-135.836735-149.942857-201.142857-299.363265-188.081633-432.587755 3.657143-32.914286 14.628571-74.710204 64.261225-108.669388 38.138776-30.302041 81.502041-48.587755 115.461224-47.542857 35.526531 0.522449 48.065306 13.061224 84.636735 66.873469C416.391837 245.55102 420.571429 284.212245 418.481633 306.155102c-3.657143 36.571429-24.032653 52.244898-41.795919 66.35102-4.702041 3.657143-8.881633 6.791837-12.538775 10.44898-21.942857 28.212245-49.110204 66.873469 66.35102 185.991837 98.742857 94.563265 151.510204 106.057143 173.97551 104.489796 17.240816-1.044898 24.555102-10.44898 27.167347-13.583674l0.522449-0.522449c36.571429-51.722449 49.110204-64.261224 84.114286-69.485714 34.481633-5.22449 51.722449 5.22449 124.342857 51.2 65.828571 41.273469 96.130612 68.963265 88.816327 111.804082-2.089796 47.542857-38.138776 111.804082-79.412245 140.538775-28.212245 19.853061-66.873469 29.779592-112.84898 29.779592zM273.240816 142.628571c-18.808163 0-52.244898 9.926531-88.293877 39.183674l-1.044898 1.044898c-33.436735 22.465306-42.840816 48.065306-46.497959 78.889796-11.493878 120.685714 49.632653 259.134694 177.632653 400.195918 138.971429 153.077551 311.379592 219.428571 423.183673 219.428572 37.093878 0 67.395918-7.314286 87.771429-21.420409 33.436735-23.510204 60.604082-78.367347 61.648979-109.191836l0.522449-3.134694c2.089796-12.016327 4.179592-24.032653-70.008163-70.530612-71.053061-44.930612-78.367347-48.065306-95.608163-45.453062-17.763265 2.612245-21.420408 3.134694-56.42449 52.767347l-1.044898 1.044898c-17.763265 22.465306-40.75102 28.734694-56.946939 30.302041-52.767347 4.179592-122.253061-35.004082-206.367347-115.983673l-0.522449-0.522449c-132.179592-135.836735-104.489796-196.440816-68.963265-242.416327l2.612245-2.612245c5.746939-5.22449 10.971429-9.926531 16.718367-14.106122 16.195918-13.061224 24.032653-19.853061 26.122449-37.616327 2.089796-24.032653-15.15102-61.126531-50.677551-110.236735l-0.522449-0.522448c-32.914286-48.587755-36.04898-48.587755-51.2-48.587756-1.044898-0.522449-1.567347-0.522449-2.089796-0.522449z" fill="#929292" p-id="3879"></path></svg>